<svg xmlns="http://www.w3.org/2000/svg" xmlns:xlink="http://www.w3.org/1999/xlink" width="41.192" height="41.192" viewBox="0 0 41.192 41.192"><defs><clipPath id="a"><rect width="41.192" height="41.192" fill="none"/></clipPath></defs><g transform="translate(0 0)" clip-path="url(#a)"><rect width="41.192" height="41.192" fill="#1e1e1e"/><path d="M2195.678,3391.177a8.041,8.041,0,0,0,6.429-4.828,10.246,10.246,0,0,0-.218-8.192,32.516,32.516,0,0,0-3.411-5.239,12.976,12.976,0,0,1-2.59-5.632,5.517,5.517,0,0,1,2.26-5.464c1.817-1.087,4.171-.642,6.1.24a6.531,6.531,0,0,1,3.528,3.175c.69,1.692.184,3.614.341,5.435a7.494,7.494,0,0,0,2.443,4.889c2.465,2.2,6.271,2.665,8.328,5.255a7.986,7.986,0,0,1,1.334,6.162,23.7,23.7,0,0,1-2.127,6.107" transform="translate(-2187.412 -3344.99)" fill="none"/><path d="M2211.073,3432.164a16.288,16.288,0,0,0,1.461-4.195,5.488,5.488,0,0,0-.917-4.232c-1.413-1.779-4.027-2.095-5.72-3.609a5.147,5.147,0,0,1-1.678-3.358c-.107-1.25.24-2.571-.234-3.733a4.487,4.487,0,0,0-2.424-2.181,4.593,4.593,0,0,0-4.187-.164,3.79,3.79,0,0,0-1.552,3.753,8.916,8.916,0,0,0,1.779,3.869,22.341,22.341,0,0,1,2.343,3.6,7.036,7.036,0,0,1,.15,5.627,5.524,5.524,0,0,1-4.416,3.317Z" transform="translate(-2187.412 -3389.065)" fill="#fff"/><path d="M2298.519,3094.4c1.07,2.942,2.154,5.967,2.1,9.1s-1.506,6.436-4.321,7.806c-2.323,1.131-5.438.951-7.007,3-1.249,1.635-.9,3.929-.63,5.969s.241,4.47-1.406,5.7a3.891,3.891,0,0,1-3.893.251,6.9,6.9,0,0,1-2.891-2.814,11.6,11.6,0,0,1-.668-10.436c1.014-2.319,2.784-4.271,3.609-6.662a9.369,9.369,0,0,0-1.494-8.72Z" transform="translate(-2262.134 -3105.368)" fill="#fff"/></g></svg>