<svg xmlns="http://www.w3.org/2000/svg" width="196.293" height="191.38" viewBox="0 0 196.293 191.38"><g transform="translate(-84.76 -60.969)"><path d="M19.407-8.1l.033.1a12.066,12.066,0,0,1-3.4,6.192A9.1,9.1,0,0,1,9.7.349a7.607,7.607,0,0,1-6.217-2.9,8.257,8.257,0,0,1-1.486-7.18l.963-4.814a13.664,13.664,0,0,1,3.636-7.371,9.214,9.214,0,0,1,6.674-2.606,7.9,7.9,0,0,1,6.109,2.357,7.374,7.374,0,0,1,1.66,6.275L21-15.8H16.319a5.418,5.418,0,0,0-.5-3.694,3.3,3.3,0,0,0-3-1.287A4.005,4.005,0,0,0,9.654-19.05a10.14,10.14,0,0,0-1.917,4.474L6.757-9.729a7.038,7.038,0,0,0,.291,4.64,3.091,3.091,0,0,0,2.98,1.718,3.964,3.964,0,0,0,2.98-1.154A8.086,8.086,0,0,0,14.775-8.1ZM39.379,0H34.6L29.136-16.07h-.1L25.832,0H21.051l4.831-24.172h4.781L36.108-8.118h.1l3.221-16.054H44.21ZM61.94,0H57.159L51.7-16.07h-.1L48.394,0H43.612l4.831-24.172h4.781L58.67-8.118h.1L61.99-24.172h4.781Z" transform="translate(83 252)" fill="#ef5d59"/><path d="M15.489-9.662,13.563,0h-4.8L13.6-24.172H22.18a7.545,7.545,0,0,1,5.545,1.909,5.413,5.413,0,0,1,1.262,5.229,7.112,7.112,0,0,1-1.577,3.345,8.153,8.153,0,0,1-3.138,2.117,4.041,4.041,0,0,1,2.416,2.158,5.95,5.95,0,0,1,.241,3.536L26.563-4.1a8.848,8.848,0,0,0-.174,2.133,2.384,2.384,0,0,0,.556,1.619L26.878,0H21.947a2.3,2.3,0,0,1-.457-1.751A14.684,14.684,0,0,1,21.8-4.134l.332-1.71a3.748,3.748,0,0,0-.274-2.864,2.552,2.552,0,0,0-2.266-.955Zm.747-3.735h3.719a4.3,4.3,0,0,0,2.772-.888,4.233,4.233,0,0,0,1.461-2.532,3.36,3.36,0,0,0-.332-2.689,2.816,2.816,0,0,0-2.424-.93H17.647ZM39.213,0a10.011,10.011,0,0,1-.149-1.029q-.05-.531-.05-1.079A8.433,8.433,0,0,1,36.806-.332a5.361,5.361,0,0,1-2.64.681A4.345,4.345,0,0,1,30.63-1.146a4.432,4.432,0,0,1-.747-3.918,6.175,6.175,0,0,1,2.673-4.175,10.63,10.63,0,0,1,5.827-1.37h2.158l.282-1.428a2.843,2.843,0,0,0-.166-2.05,1.748,1.748,0,0,0-1.594-.672,2.51,2.51,0,0,0-1.66.581,2.582,2.582,0,0,0-.88,1.577l-4.6-.017-.033-.1a5.942,5.942,0,0,1,2.656-4.009,9.45,9.45,0,0,1,5.528-1.569,6.051,6.051,0,0,1,4.491,1.66A4.856,4.856,0,0,1,45.638-12L44.144-4.582a13.674,13.674,0,0,0-.307,2.424A11.471,11.471,0,0,0,43.994,0ZM36.191-3.237a3.713,3.713,0,0,0,1.735-.457,4.828,4.828,0,0,0,1.453-1.137l.614-3.038H37.835a3.009,3.009,0,0,0-2.092.78,3.253,3.253,0,0,0-1.062,1.859,1.763,1.763,0,0,0,.2,1.478A1.557,1.557,0,0,0,36.191-3.237ZM54.536-3.37a2.649,2.649,0,0,0,1.9-.755,3.524,3.524,0,0,0,1-2.017h4.333l.033.1a6.847,6.847,0,0,1-2.623,4.615A8.173,8.173,0,0,1,53.955.349a5.94,5.94,0,0,1-5.337-2.573,8.861,8.861,0,0,1-1.071-6.491l.083-.5A11.832,11.832,0,0,1,50.693-15.8a8.281,8.281,0,0,1,6.217-2.49,5.821,5.821,0,0,1,4.665,1.909,5.719,5.719,0,0,1,1.1,4.98l-.033.083H58.271a3.63,3.63,0,0,0-.257-2.341,1.774,1.774,0,0,0-1.7-.9,2.925,2.925,0,0,0-2.582,1.511,10.058,10.058,0,0,0-1.32,3.835l-.083.5a9.12,9.12,0,0,0,.033,3.926A2,2,0,0,0,54.536-3.37Zm16.552,0a2.649,2.649,0,0,0,1.9-.755,3.524,3.524,0,0,0,1-2.017h4.333l.033.1a6.847,6.847,0,0,1-2.623,4.615A8.173,8.173,0,0,1,70.507.349a5.94,5.94,0,0,1-5.337-2.573A8.861,8.861,0,0,1,64.1-8.716l.083-.5A11.832,11.832,0,0,1,67.245-15.8a8.281,8.281,0,0,1,6.217-2.49,5.821,5.821,0,0,1,4.665,1.909,5.719,5.719,0,0,1,1.1,4.98l-.033.083H74.823a3.63,3.63,0,0,0-.257-2.341,1.774,1.774,0,0,0-1.7-.9,2.925,2.925,0,0,0-2.582,1.511,10.059,10.059,0,0,0-1.32,3.835l-.083.5a9.12,9.12,0,0,0,.033,3.926A2,2,0,0,0,71.088-3.37Zm9.729-5.777a11.783,11.783,0,0,1,3.129-6.666,8.419,8.419,0,0,1,6.234-2.482,6.047,6.047,0,0,1,5.362,2.582,8.838,8.838,0,0,1,1.129,6.566l-.05.349a11.841,11.841,0,0,1-3.146,6.674A8.434,8.434,0,0,1,87.241.349a6.053,6.053,0,0,1-5.362-2.573A8.793,8.793,0,0,1,80.767-8.8Zm4.715.349a8.5,8.5,0,0,0,.083,4A2.091,2.091,0,0,0,87.822-3.37a3.025,3.025,0,0,0,2.59-1.5A9.834,9.834,0,0,0,91.823-8.8l.05-.349a8.362,8.362,0,0,0-.108-3.951,2.082,2.082,0,0,0-2.183-1.461,3.048,3.048,0,0,0-2.615,1.527,9.557,9.557,0,0,0-1.386,3.885Zm13.348-.349a11.783,11.783,0,0,1,3.129-6.666,8.419,8.419,0,0,1,6.234-2.482,6.047,6.047,0,0,1,5.362,2.582,8.838,8.838,0,0,1,1.129,6.566l-.05.349a11.841,11.841,0,0,1-3.146,6.674A8.434,8.434,0,0,1,105.3.349a6.053,6.053,0,0,1-5.362-2.573A8.793,8.793,0,0,1,98.829-8.8Zm4.715.349a8.5,8.5,0,0,0,.083,4,2.091,2.091,0,0,0,2.208,1.428,3.025,3.025,0,0,0,2.59-1.5A9.834,9.834,0,0,0,109.886-8.8l.05-.349a8.362,8.362,0,0,0-.108-3.951,2.082,2.082,0,0,0-2.183-1.461,3.048,3.048,0,0,0-2.615,1.527,9.557,9.557,0,0,0-1.386,3.885Zm19.972-6.807a7.681,7.681,0,0,1,2.424-2,6.142,6.142,0,0,1,2.839-.689,3.924,3.924,0,0,1,3.52,1.735q1.146,1.735.432,5.337L130.538,0h-4.8l2.241-11.206a3.763,3.763,0,0,0-.091-2.623,2.073,2.073,0,0,0-1.834-.7,3.163,3.163,0,0,0-1.519.4,4.915,4.915,0,0,0-1.353,1.1L120.577,0H115.8l3.586-17.963h4.466Z" transform="translate(148 252)" fill="#fff"/><g transform="translate(-887.19 -2351.864)"><circle cx="74.016" cy="74.016" r="74.016" transform="translate(994.19 2412.833)" fill="#ef5d59"/><g transform="translate(1018.338 2451.866)"><path d="M1318.985,2088.347l-11.026-2.828a43.315,43.315,0,0,0-21.547,0l-11.026,2.828a36.231,36.231,0,0,0-24.743,22.951l-2.3,6.273a16.661,16.661,0,0,0,4.936,18.586h0a14.612,14.612,0,0,0,9.2,3.294h69.413a14.612,14.612,0,0,0,9.2-3.294h0a16.66,16.66,0,0,0,4.936-18.586l-2.3-6.273A36.232,36.232,0,0,0,1318.985,2088.347Z" transform="translate(-1247.318 -2075.462)" fill="#fff"/><path d="M1312.725,2150.2l-6.51-6.625a8.763,8.763,0,0,0-8.812-2.237l-17.164,5.25a8.762,8.762,0,0,0-5.866,10.771l1.8,6.354a8.763,8.763,0,0,0,5.467,5.855l16.779,6.026a8.765,8.765,0,0,0,2.961.515h22.591a8.768,8.768,0,0,0,2.962-.515l16.779-6.026a8.763,8.763,0,0,0,5.468-5.855l1.8-6.354a8.762,8.762,0,0,0-5.866-10.771l-17.164-5.25a8.763,8.763,0,0,0-8.812,2.237l-6.51,6.625" transform="translate(-1262.81 -2108.391)" fill="#1e1e1e"/><path d="M1351.746,2180.284l-4.5-2.109a4.637,4.637,0,0,0-5.9,1.644,1.361,1.361,0,0,0-.1.221l-2.827,7.732a1.257,1.257,0,0,1-2.362,0l-2.827-7.732a1.351,1.351,0,0,0-.1-.221,4.637,4.637,0,0,0-5.9-1.644l-4.5,2.109a5.416,5.416,0,0,0-2.783,2.877l-3.325,8.435a3.392,3.392,0,0,0,1.722,4.248l9.8,5.193a1.685,1.685,0,0,0,.789.2h16.6a1.7,1.7,0,0,0,.794-.2l9.8-5.192a3.392,3.392,0,0,0,1.722-4.248l-3.325-8.435A5.416,5.416,0,0,0,1351.746,2180.284Z" transform="translate(-1287.37 -2129.716)" fill="#fff"/><path d="M1359.951,2209.739a5.387,5.387,0,0,0-4.288-2.209h-3.526a5.387,5.387,0,0,0-4.288,2.209l-1.451,1.923a6.416,6.416,0,0,0-1.267,3.855v1.358a6.249,6.249,0,0,0,2.34,4.945l1.07.829a5.243,5.243,0,0,0,3.215,1.119h4.288a5.242,5.242,0,0,0,3.215-1.119l1.07-.829a6.249,6.249,0,0,0,2.34-4.945v-1.358a6.415,6.415,0,0,0-1.267-3.855Z" transform="translate(-1304.031 -2146.996)" fill="#1e1e1e"/><g transform="translate(31.835 38.068)"><path d="M1324.343,2154.94l-1.242,6.684a1.074,1.074,0,0,0,1.359,1.227l7.162-2.1a1.074,1.074,0,0,0,.355-1.88l-5.921-4.584A1.074,1.074,0,0,0,1324.343,2154.94Z" transform="translate(-1323.083 -2154.061)" fill="#fff"/><path d="M1394.808,2154.94l1.242,6.684a1.074,1.074,0,0,1-1.358,1.227l-7.162-2.1a1.074,1.074,0,0,1-.355-1.88l5.921-4.584A1.074,1.074,0,0,1,1394.808,2154.94Z" transform="translate(-1360.002 -2154.061)" fill="#fff"/></g><g transform="translate(2.501)"><path d="M1281.908,2076.871l-23.064-12.913c-2.717-1.521-6.068.676-5.512,3.612l4.894,25.822a1.876,1.876,0,0,0,3.316.7c3.576-4.8,10.78-12.931,20.129-15.5A.925.925,0,0,0,1281.908,2076.871Z" transform="translate(-1253.27 -2063.462)" fill="#fff"/><path d="M1283.6,2085.474l-23.064-12.913c-2.716-1.521-6.068.676-5.511,3.613l4.894,25.822a1.876,1.876,0,0,0,3.317.7c3.576-4.806,10.78-12.931,20.129-15.5A.925.925,0,0,0,1283.6,2085.474Z" transform="translate(-1254.251 -2068.45)" fill="#1e1e1e"/><g transform="translate(64.896)"><path d="M1409.9,2076.871l23.064-12.913c2.717-1.521,6.068.676,5.512,3.612l-4.894,25.822a1.876,1.876,0,0,1-3.316.7c-3.576-4.8-10.78-12.931-20.129-15.5A.925.925,0,0,1,1409.9,2076.871Z" transform="translate(-1408.698 -2063.462)" fill="#fff"/><path d="M1408.208,2085.474l23.064-12.913c2.717-1.521,6.068.676,5.512,3.613L1431.889,2102a1.876,1.876,0,0,1-3.316.7c-3.576-4.806-10.78-12.931-20.13-15.5A.925.925,0,0,1,1408.208,2085.474Z" transform="translate(-1407.717 -2068.45)" fill="#1e1e1e"/></g></g></g></g></g></svg>