<svg xmlns="http://www.w3.org/2000/svg" width="43" height="43" viewBox="0 0 43 43"><g transform="translate(0 0.369)"><rect width="43" height="43" transform="translate(0 -0.369)" fill="#fff"/><g transform="translate(1.105 1.105)"><rect width="10" height="10" transform="translate(-0.105 -0.474)" fill="#515151"/><rect width="11" height="10" transform="translate(9.895 -0.474)" fill="#1e1e1e"/><rect width="10" height="10" transform="translate(20.895 -0.474)" fill="#fff"/><rect width="10" height="10" transform="translate(30.895 -0.474)" fill="#515151"/><rect width="10" height="11" transform="translate(30.895 9.526)" fill="#1e1e1e"/><rect width="10" height="11" transform="translate(20.895 9.526)" fill="#303030"/><rect width="11" height="11" transform="translate(9.895 9.526)" fill="#fff"/><rect width="10" height="11" transform="translate(-0.105 9.526)" fill="#aaa"/><rect width="10" height="10" transform="translate(-0.105 20.526)" fill="#1e1e1e"/><rect width="11" height="10" transform="translate(9.895 20.526)" fill="#515151"/><rect width="10" height="10" transform="translate(20.895 20.526)" fill="#aaa"/><rect width="10" height="10" transform="translate(30.895 20.526)" fill="#515151"/><rect width="10" height="10" transform="translate(-0.105 30.526)" fill="#303030"/><rect width="11" height="10" transform="translate(9.895 30.526)" fill="#303030"/><rect width="10" height="10" transform="translate(20.895 30.526)" fill="#1e1e1e"/><rect width="10" height="10" transform="translate(30.895 30.526)" fill="#515151"/></g></g></svg>